<svg xmlns="http://www.w3.org/2000/svg" viewBox="0 0 1440 320"><path fill="#EC6161" fill-opacity="1" d="M0,96L17.1,133.3C34.3,171,69,245,103,272C137.1,299,171,277,206,240C240,203,274,149,309,122.7C342.9,96,377,96,411,80C445.7,64,480,32,514,37.3C548.6,43,583,85,617,106.7C651.4,128,686,128,720,117.3C754.3,107,789,85,823,69.3C857.1,53,891,43,926,69.3C960,96,994,160,1029,192C1062.9,224,1097,224,1131,234.7C1165.7,245,1200,267,1234,234.7C1268.6,203,1303,117,1337,96C1371.4,75,1406,117,1423,138.7L1440,160L1440,0L1422.9,0C1405.7,0,1371,0,1337,0C1302.9,0,1269,0,1234,0C1200,0,1166,0,1131,0C1097.1,0,1063,0,1029,0C994.3,0,960,0,926,0C891.4,0,857,0,823,0C788.6,0,754,0,720,0C685.7,0,651,0,617,0C582.9,0,549,0,514,0C480,0,446,0,411,0C377.1,0,343,0,309,0C274.3,0,240,0,206,0C171.4,0,137,0,103,0C68.6,0,34,0,17,0L0,0Z"></path></svg>